<svg width="14" height="16" viewBox="0 0 14 16" fill="none" xmlns="http://www.w3.org/2000/svg">
<path d="M12.3419 0H1.6376C0.734923 0 0 0.734923 0 1.64559V12.4458C0 13.3564 0.734923 14.0914 1.6376 14.0914H10.6963L10.273 12.6135L11.2955 13.5641L12.262 14.4588L13.9795 15.9766V1.64559C13.9795 0.734923 13.2446 0 12.3419 0ZM9.25844 10.4327C9.25844 10.4327 8.97086 10.0892 8.73121 9.78567C9.77768 9.4901 10.1771 8.83506 10.1771 8.83506C9.84957 9.05074 9.53803 9.20252 9.25844 9.30637C8.85902 9.47412 8.47558 9.58596 8.10013 9.64986C7.33326 9.79365 6.63029 9.75371 6.03117 9.64188C5.57583 9.554 5.18441 9.42619 4.85689 9.29838C4.67315 9.22648 4.47345 9.13861 4.27374 9.02678C4.24977 9.0108 4.22581 9.00281 4.20185 8.98684C4.18587 8.97885 4.17788 8.97086 4.16989 8.96287C4.0261 8.88299 3.94622 8.82707 3.94622 8.82707C3.94622 8.82707 4.32966 9.46613 5.34417 9.76969C5.10452 10.0732 4.80896 10.4327 4.80896 10.4327C3.04354 10.3768 2.37252 9.2185 2.37252 9.2185C2.37252 6.64626 3.52284 4.56132 3.52284 4.56132C4.67315 3.69858 5.76755 3.72255 5.76755 3.72255L5.84743 3.81841C4.40954 4.2338 3.74651 4.86487 3.74651 4.86487C3.74651 4.86487 3.92225 4.76901 4.21782 4.63321C5.07257 4.25776 5.75157 4.15391 6.03117 4.12995C6.07909 4.12196 6.11904 4.11397 6.16697 4.11397C6.65425 4.05007 7.20544 4.03409 7.7806 4.098C8.53949 4.18587 9.3543 4.40954 10.1851 4.86487C10.1851 4.86487 9.554 4.26575 8.19599 3.85036L8.30783 3.72255C8.30783 3.72255 9.40223 3.69858 10.5525 4.56132C10.5525 4.56132 11.7029 6.64626 11.7029 9.2185C11.7029 9.2185 11.0239 10.3768 9.25844 10.4327ZM5.54388 6.70218C5.08855 6.70218 4.72907 7.1016 4.72907 7.58888C4.72907 8.07617 5.09653 8.47558 5.54388 8.47558C5.99921 8.47558 6.35869 8.07617 6.35869 7.58888C6.36667 7.1016 5.99921 6.70218 5.54388 6.70218ZM8.45961 6.70218C8.00428 6.70218 7.6448 7.1016 7.6448 7.58888C7.6448 8.07617 8.01226 8.47558 8.45961 8.47558C8.91494 8.47558 9.27441 8.07617 9.27441 7.58888C9.27441 7.1016 8.91494 6.70218 8.45961 6.70218Z" fill="#A5A5A5"/>
</svg>
