<svg width="15" height="14" viewBox="0 0 15 14" fill="none" xmlns="http://www.w3.org/2000/svg">
<path d="M13.8646 1.76389L9.125 8.76042V13.2292C9.125 13.3094 9.09992 13.3746 9.04977 13.4248C8.99961 13.4749 8.93441 13.5 8.85417 13.5H6.14583C6.06559 13.5 6.00039 13.4749 5.95023 13.4248C5.90008 13.3746 5.875 13.3094 5.875 13.2292V8.76042L1.13542 1.76389C0.954861 1.50309 0.939815 1.22724 1.09028 0.936342C1.25077 0.645447 1.49151 0.5 1.8125 0.5H13.1875C13.5085 0.5 13.7492 0.645447 13.9097 0.936342C14.0602 1.22724 14.0451 1.50309 13.8646 1.76389Z" fill="white"/>
</svg>
