<svg width="17" height="16" viewBox="0 0 17 16" fill="none" xmlns="http://www.w3.org/2000/svg">
<path fill-rule="evenodd" clip-rule="evenodd" d="M8.20003 0C3.67186 0 0 3.67233 0 8.20251C0 11.8267 2.34955 14.9013 5.6077 15.9859C6.01749 16.0618 6.16798 15.808 6.16798 15.5913C6.16798 15.3957 6.16033 14.7495 6.15686 14.0642C3.87554 14.5603 3.39417 13.0964 3.39417 13.0964C3.02116 12.1483 2.48371 11.8962 2.48371 11.8962C1.73975 11.3871 2.53979 11.3975 2.53979 11.3975C3.36323 11.4554 3.79682 12.2428 3.79682 12.2428C4.52817 13.4968 5.7151 13.1343 6.18303 12.9247C6.2566 12.3945 6.46915 12.0327 6.70363 11.8279C4.88233 11.6204 2.96765 10.9171 2.96765 7.77413C2.96765 6.87865 3.28799 6.14688 3.81258 5.57247C3.72743 5.36584 3.44677 4.5316 3.892 3.40175C3.892 3.40175 4.58058 3.18129 6.1476 4.24256C6.80164 4.06076 7.50315 3.96967 8.20003 3.96658C8.89691 3.96967 9.59894 4.06076 10.2543 4.24256C11.8194 3.18129 12.507 3.40175 12.507 3.40175C12.9534 4.5316 12.6726 5.36584 12.5874 5.57247C13.1132 6.14688 13.4313 6.87858 13.4313 7.77413C13.4313 10.9245 11.513 11.6183 9.68711 11.8213C9.9812 12.0759 10.2433 12.5751 10.2433 13.3403C10.2433 14.4378 10.2338 15.3211 10.2338 15.5913C10.2338 15.8096 10.3813 16.0654 10.7971 15.9848C14.0534 14.899 16.4 11.8254 16.4 8.20251C16.4 3.67233 12.7287 0 8.20003 0Z" fill="#A5A5A5"/>
</svg>
