<svg width="20" height="16" viewBox="0 0 20 16" fill="none" xmlns="http://www.w3.org/2000/svg">
<path d="M19.6878 1.89294C18.9636 2.21427 18.1858 2.4315 17.368 2.52914C18.2026 2.02936 18.842 1.23739 19.1439 0.294802C18.3511 0.765692 17.4834 1.0972 16.5786 1.27492C15.8423 0.490033 14.7922 0 13.6305 0C11.4007 0 9.59235 1.80765 9.59235 4.03876C9.59235 4.35488 9.62795 4.66329 9.6964 4.9594C6.33973 4.7907 3.36382 3.18282 1.37188 0.739637C1.02407 1.33633 0.824976 2.03009 0.824976 2.7703C0.824976 4.17133 1.53808 5.40746 2.62163 6.13157C1.98018 6.11169 1.35282 5.93855 0.791977 5.62662V5.67766C0.791977 7.63466 2.18393 9.26647 4.03167 9.6376C3.69224 9.7306 3.33603 9.77919 2.96752 9.77919C2.70696 9.77919 2.45418 9.75453 2.20723 9.70808C2.7212 11.3121 4.21277 12.4797 5.9796 12.5127C4.59735 13.5962 2.85564 14.2421 0.963958 14.2421C0.638138 14.2421 0.316124 14.2227 0 14.1846C1.78763 15.3308 3.91015 16 6.19105 16C13.6195 16 17.6822 9.84581 17.6822 4.50883C17.6822 4.33361 17.6784 4.1597 17.6699 3.98642C18.4615 3.41389 19.1447 2.705 19.6878 1.89294Z" fill="#A5A5A5"/>
</svg>
