<svg width="20" height="20" viewBox="0 0 20 20" fill="none" xmlns="http://www.w3.org/2000/svg">
<path d="M10 19.5C8.7 19.5 7.47067 19.25 6.312 18.75C5.154 18.25 4.14567 17.5707 3.287 16.712C2.429 15.854 1.75 14.846 1.25 13.688C0.75 12.5293 0.5 11.3 0.5 10C0.5 8.68333 0.75 7.45 1.25 6.3C1.75 5.15 2.429 4.14567 3.287 3.287C4.14567 2.429 5.154 1.75 6.312 1.25C7.47067 0.75 8.7 0.5 10 0.5C11.3167 0.5 12.55 0.75 13.7 1.25C14.85 1.75 15.854 2.429 16.712 3.287C17.5707 4.14567 18.25 5.15 18.75 6.3C19.25 7.45 19.5 8.68333 19.5 10C19.5 11.3 19.25 12.5293 18.75 13.688C18.25 14.846 17.5707 15.854 16.712 16.712C15.854 17.5707 14.85 18.25 13.7 18.75C12.55 19.25 11.3167 19.5 10 19.5ZM10 17.975C10.5167 17.3083 10.946 16.6293 11.288 15.938C11.6293 15.246 11.9167 14.4917 12.15 13.675H7.85C8.08333 14.5083 8.371 15.2707 8.713 15.962C9.05433 16.654 9.48333 17.325 10 17.975ZM8.075 17.7C7.69167 17.15 7.346 16.525 7.038 15.825C6.72933 15.125 6.49167 14.4083 6.325 13.675H2.925C3.45833 14.7083 4.16667 15.5793 5.05 16.288C5.93333 16.996 6.94167 17.4667 8.075 17.7ZM11.925 17.7C13.0583 17.4667 14.0667 16.996 14.95 16.288C15.8333 15.5793 16.5417 14.7083 17.075 13.675H13.675C13.475 14.4083 13.225 15.129 12.925 15.837C12.625 16.5457 12.2917 17.1667 11.925 17.7ZM2.3 12.175H6.025C5.95833 11.8083 5.90833 11.4457 5.875 11.087C5.84167 10.729 5.825 10.3667 5.825 10C5.825 9.63333 5.84167 9.27067 5.875 8.912C5.90833 8.554 5.95833 8.19167 6.025 7.825H2.3C2.2 8.15833 2.125 8.50833 2.075 8.875C2.025 9.24167 2 9.61667 2 10C2 10.3833 2.025 10.7583 2.075 11.125C2.125 11.4917 2.2 11.8417 2.3 12.175ZM7.525 12.175H12.475C12.5417 11.8083 12.5917 11.45 12.625 11.1C12.6583 10.75 12.675 10.3833 12.675 10C12.675 9.61667 12.6583 9.25 12.625 8.9C12.5917 8.55 12.5417 8.19167 12.475 7.825H7.525C7.45833 8.19167 7.40833 8.55 7.375 8.9C7.34167 9.25 7.325 9.61667 7.325 10C7.325 10.3833 7.34167 10.75 7.375 11.1C7.40833 11.45 7.45833 11.8083 7.525 12.175ZM13.975 12.175H17.7C17.8 11.8417 17.875 11.4917 17.925 11.125C17.975 10.7583 18 10.3833 18 10C18 9.61667 17.975 9.24167 17.925 8.875C17.875 8.50833 17.8 8.15833 17.7 7.825H13.975C14.0417 8.19167 14.0917 8.554 14.125 8.912C14.1583 9.27067 14.175 9.63333 14.175 10C14.175 10.3667 14.1583 10.729 14.125 11.087C14.0917 11.4457 14.0417 11.8083 13.975 12.175ZM13.675 6.325H17.075C16.5417 5.275 15.8377 4.404 14.963 3.712C14.0877 3.02067 13.075 2.54167 11.925 2.275C12.3083 2.85833 12.65 3.49567 12.95 4.187C13.25 4.879 13.4917 5.59167 13.675 6.325ZM7.85 6.325H12.15C11.9167 5.49167 11.621 4.72067 11.263 4.012C10.9043 3.304 10.4833 2.64167 10 2.025C9.51667 2.64167 9.096 3.304 8.738 4.012C8.37933 4.72067 8.08333 5.49167 7.85 6.325ZM2.925 6.325H6.325C6.50833 5.59167 6.75 4.879 7.05 4.187C7.35 3.49567 7.69167 2.85833 8.075 2.275C6.90833 2.54167 5.89167 3.02067 5.025 3.712C4.15833 4.404 3.45833 5.275 2.925 6.325Z" fill="#D750C8"/>
</svg>
